<svg width="27" height="27" viewBox="0 0 27 27" fill="none" xmlns="http://www.w3.org/2000/svg">
<g clip-path="url(#clip0_1_2860)">
<path d="M6.01367 5.44099L8.72429 8.24126L10.6992 7.54145L8.11888 4.90625L6.01367 5.44099Z" fill="black"/>
<path d="M21.4563 8.92525L18.9588 11.3379L18.375 9.69519L18.8712 8.72749L20.9327 6.75781L21.4563 8.92525Z" fill="black"/>
<path d="M16.7665 20.8072L15.252 19.2431L17.056 18.875L18.0749 19.0369L20.419 21.6336L16.7665 20.8072Z" fill="black"/>
<path d="M8.04453 17.9314L5.72732 19.9522L5.15039 17.8033L7.30728 15.6875L8.04453 17.9314Z" fill="black"/>
<path d="M9.83108 1.83878C8.72574 0.745037 7.35778 0.30364 5.61328 0.472395C5.99087 0.879514 6.2382 1.16376 6.50399 1.43007C8.04387 2.97312 9.57531 4.52461 11.1384 6.0434C11.3425 6.24168 11.4369 6.40991 11.4379 6.56759L12.9182 5.16798C11.8546 4.0136 10.8858 2.88242 9.83108 1.83878Z" fill="black"/>
<path d="M21.1298 0.438571C20.5022 0.326244 19.4327 0.23132 18.2725 0.662698C17.5316 0.937978 17.0153 1.27918 16.4917 1.75696C15.5957 2.57437 14.764 3.46191 13.8971 4.31095C13.6513 4.55143 13.3824 4.76817 12.9246 5.17107C12.9225 5.16896 12.9204 5.16633 12.9183 5.16422L11.438 6.56382C11.439 6.74893 11.3125 6.92032 11.0841 7.11069C10.2873 7.77463 9.4103 8.12955 8.26172 7.76936C9.64972 9.69896 11.2112 10.3439 13.0185 8.37108C14.4334 6.82645 15.9643 5.38623 17.462 3.91807C18.5805 2.8217 19.7286 1.75538 20.8634 0.675354C20.952 0.596778 21.0406 0.517675 21.1298 0.438571Z" fill="black"/>
<path d="M22.2631 12.8833C23.2704 11.9008 24.2766 10.9115 25.1984 9.85096C26.1139 8.79782 26.424 7.52162 26.3116 5.98438C26.0316 6.22432 25.8803 6.33823 25.7468 6.4706C24.063 8.13863 22.3586 9.78715 20.7137 11.4931C20.4068 11.8111 20.1769 11.885 19.9707 11.7937L21.9435 13.7592C21.8006 13.4676 21.9277 13.2102 22.2631 12.8833Z" fill="black"/>
<path d="M24.7291 16.585C23.9227 15.7518 23.1164 14.9149 22.2574 14.1386C22.1055 14.0015 22.0026 13.8765 21.9446 13.7579L19.9718 11.7924C19.8278 11.7291 19.6949 11.5852 19.5557 11.3879C18.9941 10.5927 18.4883 9.7779 19.0294 8.61719C16.6362 10.2504 16.7475 11.8889 18.2742 13.3159C20.4696 15.3684 22.5427 17.5517 24.6711 19.6764C25.1789 20.1837 25.6978 20.6805 26.3122 21.2806C26.5247 19.3246 25.943 17.8391 24.7291 16.585Z" fill="black"/>
<path d="M14.5387 20.5734C14.7702 20.3018 15.3266 19.7217 16.2516 19.399C17.1386 19.0894 17.9033 19.177 18.254 19.2397C18.0309 18.9982 17.6886 18.6628 17.2209 18.3295C16.6635 17.9324 16.0707 17.4826 15.4073 17.5005C14.8256 17.5163 14.2513 17.8153 13.6686 18.3986C10.3357 21.7362 8.5991 23.3341 5.94544 26.1365C5.69389 26.4023 5.48981 26.6143 5.37695 26.7319C6.68796 26.8189 7.63351 26.5389 8.20728 26.3032C8.47307 26.194 9.14123 25.7927 11.1468 24.0809C11.8687 23.4649 12.5031 22.7461 13.166 22.0827C13.1882 22.1001 13.2103 22.1181 13.2325 22.136L14.6126 20.6436C14.5867 20.6204 14.563 20.5972 14.5387 20.5734Z" fill="black"/>
<path d="M14.5611 20.6406L13.1699 22.1336C15.4956 23.9925 16.9611 26.9779 20.7813 26.6135C18.6471 24.5642 16.679 22.6741 14.5611 20.6406Z" fill="black"/>
<path d="M3.91815 14.3435C3.12026 15.1551 2.29969 15.9445 1.52395 16.7767C0.418608 17.9622 -0.0971481 19.3666 0.0499846 21.2308C2.16627 19.1055 4.1428 17.1211 6.15204 15.1029L4.69073 13.5234C4.35533 13.881 4.14122 14.1167 3.91815 14.3435Z" fill="black"/>
<path d="M8.24911 13.9931C5.74996 11.4919 3.2466 8.99379 0.74218 6.49781C0.545476 6.30163 0.32346 6.1313 0.0276123 5.875C-0.194405 7.95753 0.537039 9.49584 1.87969 10.7921C2.80837 11.6886 3.74601 12.5756 4.72267 13.508C4.71212 13.519 4.70211 13.5296 4.69209 13.5401L6.15339 15.1048C6.15919 15.099 6.16499 15.0932 6.17132 15.0874C6.40072 15.244 7.38846 15.9544 7.58253 17.2185C7.65583 17.6936 7.59413 18.1034 7.52136 18.3897C7.71912 18.2468 7.98965 18.0279 8.26388 17.7173C8.49802 17.451 10.2557 16.0013 8.24911 13.9931Z" fill="black"/>
<path d="M9.91184 14.45C9.40136 13.833 9.03853 13.3199 8.60188 12.879C6.31104 10.5671 3.99805 8.27727 1.69983 5.97167C0.69258 4.96125 0.646173 3.78946 1.80056 2.57812C2.24776 3.13765 2.64802 3.73515 3.14215 4.23983C4.95732 6.09243 6.81836 7.89968 8.63247 9.75335C9.86385 11.0111 10.3617 12.6976 9.91184 14.45Z" fill="black"/>
<path d="M16.2755 12.8438C16.5344 13.0589 16.6868 13.1665 16.8176 13.2967C19.3975 15.8708 21.9789 18.4432 24.5503 21.0257C25.654 22.1342 25.7247 23.3318 24.5972 24.4398C23.524 23.3023 22.4625 22.149 21.3692 21.0267C20.2138 19.8402 19.0141 18.6969 17.8597 17.5098C16.6436 16.26 16.0503 14.7744 16.2755 12.8438Z" fill="black"/>
<path d="M12.4707 10.4942C12.6595 10.2384 12.7502 10.076 12.8768 9.94942C15.5088 7.31475 18.1403 4.67901 20.7829 2.05541C21.8002 1.04552 22.9873 1.02074 24.1137 2.18725C23.7261 2.47572 23.291 2.72885 22.9435 3.0711C20.978 5.00598 19.0442 6.97302 17.0777 8.90737C15.8384 10.1261 14.3439 10.6598 12.4707 10.4942Z" fill="black"/>
<path d="M2.31055 25.0603C3.52927 23.8663 4.71213 22.7162 5.88497 21.5565C7.06151 20.3932 8.21115 19.2029 9.40403 18.057C10.6064 16.9015 12.0746 16.4686 13.8639 16.5846C13.6846 16.8319 13.587 17.0133 13.4473 17.1531C10.8337 19.7704 8.21958 22.3866 5.59651 24.9944C4.55287 26.0317 3.50396 26.0855 2.31055 25.0603Z" fill="black"/>
<path d="M16.4258 20.4641C18.0332 20.3428 19.408 20.6134 20.5291 21.7467C21.6308 22.8599 22.7556 23.9499 23.8684 25.0479C23.0362 25.9159 22.0137 26.0726 21.1889 25.2926C19.5757 23.7664 18.0616 22.1348 16.4258 20.4641Z" fill="black"/>
<path d="M2.54688 1.94061C3.36322 1.18227 4.27555 1.01668 5.06237 1.76869C6.6687 3.30382 8.15321 4.96605 9.71419 6.60297C8.55875 6.7712 7.33 6.64832 6.40766 5.84199C5.04549 4.65175 3.84786 3.27376 2.54688 1.94061Z" fill="black"/>
<path d="M1.49791 24.1465C0.833965 23.2658 0.716891 22.3208 1.40509 21.5836C3.11426 19.7542 5.37926 17.5461 6.01103 16.9523C6.10279 16.8663 6.17504 16.7978 6.20932 16.7656C6.30266 17.177 6.40338 17.8694 6.22144 18.6762C6.13918 19.0417 6.05691 19.6012 5.53641 20.2008C4.31558 21.6078 2.87378 22.8234 1.49791 24.1465Z" fill="black"/>
<path d="M24.8043 2.9375C25.4746 3.73592 25.6402 4.76268 24.9573 5.48147C23.4221 7.09624 21.7752 8.60553 20.1383 10.1918C19.8841 8.96045 20.1003 7.73065 20.8845 6.81621C22.0768 5.42504 23.487 4.22056 24.8043 2.9375Z" fill="black"/>
</g>
<defs>
<clipPath id="clip0_1_2860">
<rect width="26.2534" height="26.5638" fill="white" transform="translate(0 0.28125)"/>
</clipPath>
</defs>
</svg>
